<svg id="visual" viewBox="0 0 900 150" width="900" height="150" xmlns="http://www.w3.org/2000/svg" xmlns:xlink="http://www.w3.org/1999/xlink" version="1.1"><rect x="0" y="0" width="900" height="150" fill="#0C1236"></rect><path d="M0 99L15 97.2C30 95.3 60 91.7 90 90.3C120 89 150 90 180 93.3C210 96.7 240 102.3 270 105.3C300 108.3 330 108.7 360 106.7C390 104.7 420 100.3 450 95.2C480 90 510 84 540 83.5C570 83 600 88 630 89.5C660 91 690 89 720 91.7C750 94.3 780 101.7 810 100.3C840 99 870 89 885 84L900 79L900 0L885 0C870 0 840 0 810 0C780 0 750 0 720 0C690 0 660 0 630 0C600 0 570 0 540 0C510 0 480 0 450 0C420 0 390 0 360 0C330 0 300 0 270 0C240 0 210 0 180 0C150 0 120 0 90 0C60 0 30 0 15 0L0 0Z" fill="#07091c"></path><path d="M0 64L15 66.2C30 68.3 60 72.7 90 75.2C120 77.7 150 78.3 180 74.5C210 70.7 240 62.3 270 61.7C300 61 330 68 360 68.7C390 69.3 420 63.7 450 62.7C480 61.7 510 65.3 540 64.2C570 63 600 57 630 54.8C660 52.7 690 54.3 720 57C750 59.7 780 63.3 810 63.7C840 64 870 61 885 59.5L900 58L900 0L885 0C870 0 840 0 810 0C780 0 750 0 720 0C690 0 660 0 630 0C600 0 570 0 540 0C510 0 480 0 450 0C420 0 390 0 360 0C330 0 300 0 270 0C240 0 210 0 180 0C150 0 120 0 90 0C60 0 30 0 15 0L0 0Z" fill="#0b0e29"></path><path d="M0 44L15 41.8C30 39.7 60 35.3 90 32.5C120 29.7 150 28.3 180 30.3C210 32.3 240 37.7 270 38.2C300 38.7 330 34.3 360 32.7C390 31 420 32 450 35C480 38 510 43 540 43.3C570 43.7 600 39.3 630 37.7C660 36 690 37 720 35.5C750 34 780 30 810 30.2C840 30.3 870 34.7 885 36.8L900 39L900 0L885 0C870 0 840 0 810 0C780 0 750 0 720 0C690 0 660 0 630 0C600 0 570 0 540 0C510 0 480 0 450 0C420 0 390 0 360 0C330 0 300 0 270 0C240 0 210 0 180 0C150 0 120 0 90 0C60 0 30 0 15 0L0 0Z" fill="#0c1236"></path></svg>